
<svg
  version="1.0"
  xmlns="http://www.w3.org/2000/svg"
  xmlns:xlink="http://www.w3.org/1999/xlink"
  width="2400"
  height="1800"
>
  
  <rect
    x="0"
    y="0"
    width="100%"
    height="100%"
    fill="#ffffff"
    fill-opacity="1"
  ></rect>
  <svg
    version="1.0"
    xmlns="http://www.w3.org/2000/svg"
    xmlns:xlink="http://www.w3.org/1999/xlink"
    x="0"
    y="0"
    width="2400"
    height="1800"
    viewBox="0 0 340.000000 250.000000"
    preserveAspectRatio="xMidYMid meet"
    color-interpolation-filters="sRGB"
  >
    <defs><linearGradient id="92" x1="0%" y1="0%" x2="100%" y2="0%"><stop offset="0%" stop-color="#fa71cd"/> <stop offset="100%" stop-color="#9b59b6"/></linearGradient><linearGradient id="93" x1="0%" y1="0%" x2="100%" y2="0%"><stop offset="0%" stop-color="#f9d423"/> <stop offset="100%" stop-color="#f83600"/></linearGradient><linearGradient id="94" x1="0%" y1="0%" x2="100%" y2="0%"><stop offset="0%" stop-color="#0064d2"/> <stop offset="100%" stop-color="#1cb0f6"/></linearGradient><linearGradient id="95" x1="0%" y1="0%" x2="100%" y2="0%"><stop offset="0%" stop-color="#f00978"/> <stop offset="100%" stop-color="#3f51b1"/></linearGradient><linearGradient id="96" x1="0%" y1="0%" x2="100%" y2="0%"><stop offset="0%" stop-color="#7873f5"/> <stop offset="100%" stop-color="#ec77ab"/></linearGradient><linearGradient id="97" x1="0%" y1="0%" x2="100%" y2="0%"><stop offset="0%" stop-color="#f9d423"/> <stop offset="100%" stop-color="#e14fad"/></linearGradient><linearGradient id="98" x1="0%" y1="0%" x2="100%" y2="0%"><stop offset="0%" stop-color="#009efd"/> <stop offset="100%" stop-color="#2af598"/></linearGradient><linearGradient id="99" x1="0%" y1="0%" x2="100%" y2="0%"><stop offset="0%" stop-color="#ffcc00"/> <stop offset="100%" stop-color="#00b140"/></linearGradient><linearGradient id="100" x1="0%" y1="0%" x2="100%" y2="0%"><stop offset="0%" stop-color="#d51007"/> <stop offset="100%" stop-color="#ff8177"/></linearGradient><linearGradient id="102" x1="0%" y1="0%" x2="100%" y2="0%"><stop offset="0%" stop-color="#a2b6df"/> <stop offset="100%" stop-color="#0c3483"/></linearGradient><linearGradient id="103" x1="0%" y1="0%" x2="100%" y2="0%"><stop offset="0%" stop-color="#7ac5d8"/> <stop offset="100%" stop-color="#eea2a2"/></linearGradient><linearGradient id="104" x1="0%" y1="0%" x2="100%" y2="0%"><stop offset="0%" stop-color="#00ecbc"/> <stop offset="100%" stop-color="#007adf"/></linearGradient><linearGradient id="105" x1="0%" y1="0%" x2="100%" y2="0%"><stop offset="0%" stop-color="#b88746"/> <stop offset="100%" stop-color="#fdf5a6"/></linearGradient></defs> <g fill="#fb663c" class="icon-text-wrapper icon-svg-group iconsvg" transform="translate(81.13500213623047,93.93894958496094)"><g class="iconsvg-imagesvg" transform="translate(58.86499786376953,0)"><g><rect fill="#fb663c" fill-opacity="0" stroke-width="2" x="0" y="0" width="60" height="39.12210007433199" class="image-rect"/> <svg filter="url(#colors9007913420)" x="0" y="0" width="60" height="39.12210007433199" filtersec="colorsf9917055863" class="image-svg-svg primary" style="overflow: visible;"><svg xmlns="http://www.w3.org/2000/svg" xmlns:xlink="http://www.w3.org/1999/xlink" version="1.1" x="0px" y="0px" viewBox="9.927404403686523 23.889741897583008 80.07259368896484 52.21025848388672" xml:space="preserve"><path d="M59.2,43.2C59.2,43.2,59.2,43.2,59.2,43.2c1.3,0,2.5-0.7,3.3-1.9c0.8-1.1,1.2-2.5,1.2-4c0-3.3-2-5.8-4.5-5.8c0,0,0,0,0,0  c-2.5,0-4.5,2.6-4.5,5.9c0,1.5,0.4,2.9,1.2,4C56.7,42.6,57.9,43.2,59.2,43.2z M59.2,33.8C59.2,33.8,59.2,33.8,59.2,33.8  c1.2,0,2.3,1.6,2.3,3.6c0,1-0.3,2-0.8,2.7c-0.2,0.3-0.8,0.9-1.5,0.9c0,0,0,0,0,0c-0.7,0-1.2-0.6-1.5-0.9c-0.5-0.7-0.8-1.7-0.8-2.7  C56.9,35.4,58,33.8,59.2,33.8z"/><path d="M68.2,38.8c0.3,0.1,0.6,0.1,0.9,0.1c1.2,0,2.4-0.5,3.4-1.5c1.2-1.2,2.1-2.8,2.6-4.7c1-4.2-0.4-8-3.3-8.7  C69,23.3,66,26,65,30.2C63.9,34.3,65.4,38.1,68.2,38.8z M67.1,30.7c0.7-2.8,2.5-4.6,3.9-4.6c0.1,0,0.2,0,0.4,0  c1.4,0.3,2.4,2.9,1.6,6c-0.4,1.5-1.1,2.8-2,3.6c-0.4,0.4-1.3,1.1-2.3,0.9C67.4,36.3,66.4,33.8,67.1,30.7z"/><path d="M89.2,46.3c-1.5-2-4.8-2-7.4,0c-1.2,0.9-2,2.1-2.4,3.4C79,51,79.2,52.4,80,53.4c0.8,1,2,1.5,3.3,1.5c1.3,0,2.8-0.5,4.1-1.5  c1.2-0.9,2-2.1,2.4-3.4C90.2,48.6,90,47.3,89.2,46.3z M87.6,49.4c-0.2,0.8-0.9,1.6-1.7,2.3c-1.5,1.2-3.5,1.4-4.2,0.4  c-0.4-0.6-0.3-1.3-0.2-1.7c0.2-0.8,0.9-1.6,1.7-2.3c0.9-0.7,1.9-1,2.7-1c0.6,0,1.2,0.2,1.5,0.6C87.9,48.2,87.8,49,87.6,49.4z"/><path d="M77.9,43.6c0.7,0.6,1.6,0.9,2.6,0.9c2.1,0,4.5-1.3,6.3-3.6c1.2-1.5,2-3.3,2.1-4.9c0.2-1.8-0.4-3.4-1.5-4.3  c-1.2-0.9-2.8-1.1-4.5-0.5c-1.6,0.5-3.1,1.7-4.3,3.2v0C75.8,37.7,75.6,41.7,77.9,43.6z M80.3,35.7L80.3,35.7  c0.9-1.2,2.1-2.1,3.3-2.5c0.6-0.2,1.7-0.5,2.4,0.1c0.8,0.6,0.8,1.7,0.7,2.3c-0.1,1.2-0.7,2.6-1.7,3.8c-2,2.5-4.6,3.2-5.7,2.3  C78.2,40.9,78.3,38.2,80.3,35.7z"/><path d="M77.8,52.5l-2.1-6.2c-1.1-3.3-4.8-5.1-8.1-4l-6.2,2.1c-0.6,0.2-1.1,0.5-1.6,0.8c-3.1,1.9-4.5,5.7-3.3,9.1  c0.7,2,2.1,3.6,3.9,4.5c0.7,0.3,1.4,0.6,2.1,0.7c1,0.2,1.9,0.6,2.6,1.3h0c0.6,0.5,1.2,0.9,1.8,1.3c1.1,0.5,2.2,0.8,3.4,0.8  c0.8,0,1.7-0.1,2.5-0.4c3.5-1.2,5.6-4.6,5.2-8.2C78.1,53.7,78,53.1,77.8,52.5z M72.2,60.3c-1.4,0.5-2.9,0.4-4.2-0.3  c-0.5-0.2-0.9-0.5-1.3-0.9c-1-1-2.4-1.6-3.7-1.8c-0.5-0.1-1-0.3-1.5-0.5C60,56.1,59,55,58.5,53.6c-0.8-2.5,0.1-5.1,2.4-6.5  c0.3-0.2,0.7-0.4,1.1-0.5l6.2-2.1c2.2-0.7,4.5,0.4,5.3,2.6l2.1,6.2c0.1,0.4,0.2,0.8,0.3,1.2C76.2,57,74.6,59.4,72.2,60.3z"/><path d="M40.8,44.8C40.8,44.8,40.8,44.8,40.8,44.8c-1.3,0-2.5,0.7-3.3,1.8c-0.8,1.1-1.2,2.5-1.2,4c0,1.5,0.4,2.9,1.2,4  c0.8,1.2,2,1.9,3.3,1.9c0,0,0,0,0,0c1.3,0,2.5-0.7,3.3-1.8c0.8-1.1,1.2-2.5,1.2-4c0-1.5-0.4-2.9-1.2-4  C43.3,45.5,42.1,44.8,40.8,44.8z M42.3,53.3c-0.2,0.3-0.8,0.9-1.5,0.9c0,0,0,0,0,0c-0.7,0-1.2-0.6-1.5-0.9c-0.5-0.7-0.8-1.7-0.8-2.7  v0c0-1,0.3-2,0.8-2.7c0.2-0.3,0.8-0.9,1.5-0.9c0,0,0,0,0,0c0.7,0,1.2,0.6,1.5,0.9c0.5,0.7,0.8,1.7,0.8,2.7  C43.1,51.7,42.8,52.6,42.3,53.3z"/><path d="M27.4,50.7c1.1,1,2.2,1.5,3.4,1.5c0.3,0,0.6,0,0.9-0.1c2.9-0.7,4.3-4.5,3.3-8.7c-1-4.2-4.1-6.9-6.9-6.1  c-1.5,0.4-2.6,1.5-3.2,3.3c-0.5,1.6-0.6,3.5-0.1,5.4C25.3,47.9,26.2,49.5,27.4,50.7z M27,41.3c0.2-0.6,0.7-1.6,1.6-1.8  c0.1,0,0.2,0,0.4,0c1.4,0,3.2,1.7,3.9,4.6c0.8,3.1-0.3,5.6-1.6,6c-0.9,0.2-1.8-0.4-2.3-0.9c-0.9-0.8-1.6-2.2-2-3.6  C26.6,44,26.6,42.5,27,41.3z"/><path d="M18.1,59.5c-2.6-2-5.8-2-7.4,0c-0.8,1-1,2.4-0.5,3.7c0.4,1.3,1.3,2.5,2.4,3.4c1.3,1,2.8,1.5,4.1,1.5c1.3,0,2.5-0.5,3.3-1.5  c0.8-1,1-2.4,0.5-3.7C20.2,61.7,19.3,60.4,18.1,59.5z M18.2,65.3c-0.7,1-2.7,0.8-4.2-0.4c-0.8-0.6-1.4-1.4-1.7-2.3  c-0.1-0.4-0.3-1.2,0.2-1.7c0.3-0.4,0.9-0.6,1.5-0.6c0.8,0,1.8,0.4,2.7,1c0.8,0.6,1.4,1.4,1.7,2.3C18.5,64,18.7,64.7,18.2,65.3z"/><path d="M13.2,54.1c1.8,2.3,4.2,3.6,6.3,3.6c1,0,1.9-0.3,2.6-0.9c1.2-0.9,1.7-2.5,1.5-4.3c-0.2-1.7-0.9-3.4-2.1-4.9  c-1.2-1.5-2.7-2.7-4.3-3.2c-1.8-0.6-3.4-0.4-4.5,0.5c-1.2,0.9-1.7,2.5-1.5,4.3C11.3,50.8,12,52.6,13.2,54.1z M14,46.6  c0.4-0.3,0.8-0.4,1.2-0.4c0.5,0,0.9,0.1,1.2,0.2c1.2,0.4,2.4,1.3,3.3,2.5l0,0c0.9,1.2,1.5,2.6,1.7,3.8c0.1,0.6,0.1,1.7-0.7,2.3  C19.6,56,17,55.2,15,52.7c-0.9-1.2-1.5-2.6-1.7-3.8C13.3,48.3,13.3,47.2,14,46.6z"/><path d="M40.3,58.5c-0.5-0.3-1-0.6-1.6-0.8l-6.2-2.1c-3.3-1.1-7,0.6-8.1,4l-2.1,6.2c-0.2,0.6-0.3,1.2-0.4,1.7  c-0.4,3.6,1.8,7,5.2,8.2c0.8,0.3,1.7,0.4,2.5,0.4c1.2,0,2.3-0.3,3.4-0.8c0.7-0.3,1.3-0.8,1.8-1.3c0,0,0,0,0,0  c0.7-0.7,1.6-1.1,2.6-1.3c0.7-0.1,1.5-0.4,2.1-0.7c1.9-0.9,3.3-2.5,3.9-4.5C44.8,64.1,43.4,60.4,40.3,58.5z M41.5,66.9  c-0.5,1.4-1.5,2.5-2.8,3.2c-0.5,0.2-1,0.4-1.5,0.5c-1.4,0.2-2.7,0.9-3.7,1.8c-0.4,0.4-0.8,0.7-1.3,0.9c-1.3,0.7-2.8,0.7-4.2,0.3  c-2.5-0.8-4-3.2-3.7-5.9c0-0.4,0.1-0.8,0.3-1.2l2.1-6.2c0.6-1.7,2.2-2.8,3.9-2.8c0.4,0,0.9,0.1,1.3,0.2l6.2,2.1  c0.4,0.1,0.8,0.3,1.1,0.5C41.3,61.7,42.3,64.4,41.5,66.9z"/></svg></svg> <defs><filter id="colors9007913420"><feColorMatrix type="matrix" values="0 0 0 0 0.98046875  0 0 0 0 0.3984375  0 0 0 0 0.234375  0 0 0 1 0" class="icon-feColorMatrix "/></filter> <filter id="colorsf9917055863"><feColorMatrix type="matrix" values="0 0 0 0 0.99609375  0 0 0 0 0.99609375  0 0 0 0 0.99609375  0 0 0 1 0" class="icon-fecolormatrix"/></filter> <filter id="colorsb6870603210"><feColorMatrix type="matrix" values="0 0 0 0 0  0 0 0 0 0  0 0 0 0 0  0 0 0 1 0" class="icon-fecolormatrix"/></filter></defs></g></g> <g transform="translate(0,46.122100830078125)"><g fill-rule="" class="tp-name iconsvg-namesvg"><g transform="scale(1)"><g><path d="M10.35-11.84C10.35-10.75 10.48-10.06 10.76-9.76 11.03-9.47 11.67-9.32 12.68-9.32 13.37-9.32 13.96-9.4 14.44-9.57 14.93-9.74 15.3-9.95 15.53-10.22 15.77-10.49 15.93-10.76 16.02-11.02 16.12-11.29 16.16-11.57 16.16-11.86 16.16-12.27 16.09-12.67 15.94-13.05 15.8-13.43 15.56-13.79 15.21-14.14 14.87-14.48 14.44-14.77 13.93-15.02 13.42-15.26 12.77-15.46 12-15.6 11.22-15.75 10.34-15.82 9.36-15.82 6.89-15.82 4.91-15.1 3.41-13.67 1.92-12.23 1.17-10.28 1.17-7.81 1.17-6.14 1.55-4.7 2.32-3.49 3.09-2.28 4.14-1.37 5.46-0.76 6.78-0.14 8.29 0.16 9.98 0.16 11.83 0.16 13.42-0.36 14.77-1.41 16.11-2.45 16.78-3.68 16.78-5.08 16.78-6.04 16.54-6.71 16.05-7.1 15.56-7.48 14.87-7.67 13.99-7.67L11.22-7.67C10.52-7.67 10.02-7.53 9.73-7.26 9.44-6.98 9.29-6.57 9.29-6.02 9.29-5.78 9.36-5.55 9.48-5.35 9.6-5.14 9.79-4.97 10.06-4.83 10.33-4.69 10.64-4.62 11.01-4.62 11.01-4.36 10.95-4.14 10.83-3.96 10.71-3.78 10.55-3.64 10.36-3.55 10.17-3.46 9.96-3.41 9.73-3.41 9.01-3.41 8.39-3.77 7.86-4.48 7.34-5.19 7.07-6.32 7.07-7.87 7.07-9.55 7.3-10.75 7.76-11.47 8.22-12.19 8.77-12.54 9.41-12.54 10.03-12.54 10.35-12.31 10.35-11.84ZM23.95-4.83L23.92-9.02C23.92-9.66 23.74-10.14 23.36-10.46 22.99-10.78 22.37-10.94 21.52-10.94 21.06-10.94 20.69-10.9 20.41-10.81 20.13-10.71 19.88-10.56 19.68-10.35 19.47-10.13 19.32-9.81 19.22-9.37 19.12-8.94 19.05-8.42 19-7.82 18.95-7.21 18.93-6.43 18.93-5.47 18.93-3.53 19.17-2.14 19.64-1.29 20.11-0.45 20.89-0.02 21.98-0.02 22.83-0.02 23.61-0.11 24.3-0.27 24.99-0.44 25.65-0.73 26.28-1.14 26.37-0.87 26.51-0.65 26.68-0.48 26.86-0.31 27.09-0.19 27.38-0.1 27.67-0.02 28.02 0.02 28.43 0.02 29.39 0.02 30.06-0.15 30.45-0.5 30.83-0.85 31.02-1.5 31.02-2.43L31.02-8.38C31.02-9.34 30.79-10 30.33-10.36 29.87-10.72 29.23-10.9 28.41-10.9 27.94-10.9 27.52-10.79 27.17-10.58 26.82-10.36 26.55-10.06 26.37-9.67 26.19-9.28 26.1-8.83 26.1-8.31L26.1-5.24C26.1-4.91 26.05-4.61 25.96-4.35 25.87-4.09 25.73-3.89 25.56-3.74 25.38-3.6 25.18-3.53 24.95-3.53 24.28-3.53 23.95-3.96 23.95-4.83ZM40.47-7.58L40.47-3.3C40.21-2.88 39.87-2.68 39.44-2.68 39.03-2.68 38.71-2.95 38.48-3.5 38.25-4.05 38.14-4.68 38.14-5.38 38.14-6.13 38.26-6.79 38.5-7.37 38.75-7.95 39.07-8.24 39.47-8.24 39.88-8.24 40.21-8.02 40.47-7.58ZM37.36 0.14C38.69 0.14 39.84-0.19 40.82-0.85 41.14-0.28 41.8 0 42.81 0 43.77 0 44.44-0.18 44.82-0.54 45.2-0.9 45.39-1.53 45.39-2.45L45.39-8.4C45.39-9.36 45.17-10.02 44.71-10.38 44.25-10.74 43.61-10.92 42.79-10.92 41.87-10.92 41.21-10.54 40.79-9.77 39.74-10.64 38.6-11.08 37.36-11.08 36.14-11.08 35.14-10.56 34.35-9.53 33.56-8.5 33.17-7.12 33.17-5.38 33.17-3.67 33.57-2.32 34.36-1.34 35.15-0.35 36.15 0.14 37.36 0.14ZM52.54-4.83L52.51-9.02C52.51-9.66 52.33-10.14 51.95-10.46 51.58-10.78 50.97-10.94 50.11-10.94 49.65-10.94 49.28-10.9 49-10.81 48.72-10.71 48.47-10.56 48.27-10.35 48.06-10.13 47.91-9.81 47.81-9.37 47.71-8.94 47.64-8.42 47.59-7.82 47.55-7.21 47.52-6.43 47.52-5.47 47.52-3.53 47.76-2.14 48.23-1.29 48.71-0.45 49.48-0.02 50.57-0.02 51.42-0.02 52.2-0.11 52.89-0.27 53.59-0.44 54.25-0.73 54.87-1.14 54.96-0.87 55.1-0.65 55.27-0.48 55.45-0.31 55.68-0.19 55.97-0.1 56.26-0.02 56.61 0.02 57.02 0.02 57.99 0.02 58.66-0.15 59.04-0.5 59.42-0.85 59.61-1.5 59.61-2.43L59.61-8.38C59.61-9.34 59.38-10 58.92-10.36 58.47-10.72 57.83-10.9 57-10.9 56.53-10.9 56.12-10.79 55.76-10.58 55.41-10.36 55.15-10.06 54.96-9.67 54.78-9.28 54.69-8.83 54.69-8.31L54.69-5.24C54.69-4.91 54.64-4.61 54.55-4.35 54.46-4.09 54.33-3.89 54.15-3.74 53.98-3.6 53.77-3.53 53.54-3.53 52.87-3.53 52.54-3.96 52.54-4.83ZM67.21-11.08C65.59-11.08 64.28-10.74 63.26-10.06 62.25-9.38 61.74-8.51 61.74-7.44 61.74-6.81 61.87-6.28 62.14-5.85 62.41-5.41 62.88-5.05 63.55-4.76 63.98-4.49 64.55-4.26 65.27-4.07 65.98-3.89 66.56-3.74 67-3.61 67.45-3.48 67.67-3.3 67.67-3.09 67.67-2.68 67.25-2.47 66.41-2.47 65.8-2.47 65.14-2.64 64.42-2.99 63.7-3.33 63.17-3.5 62.82-3.5 62.46-3.5 62.19-3.42 62-3.25 61.81-3.08 61.72-2.85 61.72-2.56 61.72-2.09 61.95-1.63 62.43-1.19 63.4-0.29 64.88 0.16 66.84 0.16 67.85 0.16 68.75 0.05 69.53-0.17 70.32-0.39 70.94-0.68 71.4-1.04 71.86-1.4 72.2-1.78 72.43-2.19 72.66-2.59 72.77-3 72.77-3.41 72.77-4.25 72.56-4.93 72.13-5.44 71.71-5.95 70.92-6.43 69.77-6.87 69.47-7.02 69.02-7.18 68.44-7.35 67.85-7.52 67.4-7.68 67.1-7.83 66.79-7.98 66.64-8.19 66.64-8.45 66.64-8.81 66.94-9 67.53-9 67.97-9 68.39-8.92 68.79-8.77 69.19-8.62 69.51-8.45 69.75-8.26 70-8.08 70.26-7.91 70.53-7.75 70.81-7.59 71.06-7.51 71.29-7.51 71.55-7.51 71.76-7.59 71.93-7.76 72.09-7.93 72.18-8.11 72.18-8.31 72.18-9 71.71-9.63 70.76-10.21 69.81-10.79 68.63-11.08 67.21-11.08ZM75.41-4.9C75.41-3.16 75.72-1.91 76.34-1.14 76.97-0.38 78.04 0 79.55 0 80.22 0 80.83-0.14 81.37-0.43 81.91-0.72 82.33-1.09 82.64-1.53 82.95-1.98 83.18-2.43 83.34-2.91 83.5-3.38 83.58-3.82 83.58-4.24 83.58-4.48 83.48-4.69 83.29-4.85 83.1-5.02 82.83-5.1 82.48-5.1 82.33-5.1 82.19-5.04 82.08-4.91 81.96-4.78 81.87-4.64 81.8-4.48 81.74-4.32 81.64-4.17 81.52-4.04 81.4-3.91 81.24-3.85 81.06-3.85 80.94-3.85 80.84-3.86 80.75-3.89 80.67-3.92 80.6-3.98 80.56-4.07 80.51-4.17 80.48-4.29 80.45-4.45 80.43-4.61 80.42-4.81 80.42-5.06L80.42-7.58 80.83-7.58C81.26-7.58 81.62-7.6 81.91-7.63 82.2-7.67 82.45-7.74 82.65-7.83 82.86-7.92 83.01-8.05 83.1-8.22 83.19-8.39 83.24-8.59 83.24-8.84 83.24-9.42 83.08-9.82 82.77-10.04 82.45-10.26 81.88-10.37 81.04-10.37L80.42-10.37 80.4-13C80.4-13.58 80.32-14.02 80.17-14.31 80.02-14.6 79.69-14.74 79.18-14.74 78.36-14.74 77.53-14.51 76.69-14.04 75.85-13.58 75.43-13.06 75.43-12.48L75.43-10.35C74.38-10.27 73.85-9.8 73.85-8.93 73.85-8.65 73.9-8.42 74-8.24 74.1-8.06 74.26-7.91 74.49-7.79 74.72-7.68 75.02-7.62 75.41-7.6ZM90.63-2.45L90.63-7.05C90.8-7.28 91.05-7.39 91.38-7.39 91.61-7.39 91.82-7.33 91.99-7.19 92.17-7.05 92.36-6.91 92.56-6.78 92.77-6.64 93.04-6.57 93.38-6.57 93.94-6.57 94.4-6.76 94.75-7.14 95.1-7.52 95.28-8.02 95.28-8.63 95.28-10.16 94.48-10.92 92.87-10.92 92.05-10.92 91.19-10.58 90.31-9.91 89.94-10.58 89.18-10.92 88.02-10.92 87.55-10.92 87.13-10.81 86.78-10.6 86.43-10.39 86.17-10.08 85.98-9.69 85.8-9.31 85.71-8.85 85.71-8.33L85.71-2.7C85.71-1.74 85.87-1.05 86.19-0.63 86.51-0.21 87.12 0 88.02 0 89 0 89.68-0.18 90.06-0.54 90.44-0.9 90.63-1.53 90.63-2.45ZM102.28 0.16C104.1 0.16 105.6-0.34 106.8-1.33 108-2.32 108.6-3.68 108.6-5.4 108.6-7.14 108.01-8.52 106.84-9.55 105.66-10.57 104.14-11.08 102.28-11.08 100.42-11.08 98.89-10.57 97.7-9.55 96.51-8.52 95.92-7.14 95.92-5.4 95.92-4.26 96.2-3.26 96.78-2.4 97.35-1.55 98.11-0.91 99.07-0.48 100.02-0.05 101.09 0.16 102.28 0.16ZM103.47-5.43C103.47-4.63 103.37-3.95 103.17-3.37 102.98-2.79 102.68-2.5 102.28-2.5 101.88-2.5 101.58-2.79 101.37-3.38 101.15-3.96 101.05-4.65 101.05-5.43 101.05-5.93 101.09-6.4 101.18-6.84 101.27-7.29 101.42-7.66 101.62-7.97 101.82-8.27 102.05-8.42 102.3-8.42 102.69-8.42 102.98-8.12 103.17-7.52 103.37-6.92 103.47-6.22 103.47-5.43ZM117.55-6.16L117.57-1.9C117.57-1.27 117.76-0.8 118.13-0.48 118.51-0.16 119.12 0 119.98 0 120.42 0 120.78-0.05 121.06-0.14 121.35-0.23 121.59-0.38 121.81-0.6 122.02-0.81 122.18-1.13 122.28-1.57 122.38-2 122.45-2.52 122.5-3.12 122.54-3.73 122.56-4.51 122.56-5.47 122.56-7.42 122.32-8.83 121.84-9.68 121.36-10.54 120.58-10.97 119.5-10.97 117.79-10.97 116.34-10.58 115.15-9.8 114.95-10.21 114.65-10.5 114.25-10.67 113.86-10.84 113.37-10.92 112.79-10.92 112.09-10.92 111.53-10.68 111.11-10.21 110.69-9.74 110.48-9.11 110.48-8.33L110.48-2.7C110.48-1.74 110.64-1.05 110.97-0.63 111.3-0.21 111.91 0 112.81 0 113.77 0 114.44-0.18 114.83-0.53 115.21-0.88 115.4-1.52 115.4-2.45L115.4-5.97C115.43-6.42 115.55-6.77 115.75-7.04 115.96-7.31 116.22-7.44 116.54-7.44 117.21-7.44 117.55-7.01 117.55-6.16ZM130.83 0.16C132.64 0.16 134.15-0.34 135.35-1.33 136.55-2.32 137.15-3.68 137.15-5.4 137.15-7.14 136.56-8.52 135.38-9.55 134.21-10.57 132.69-11.08 130.83-11.08 128.97-11.08 127.44-10.57 126.25-9.55 125.06-8.52 124.46-7.14 124.46-5.4 124.46-4.26 124.75-3.26 125.32-2.4 125.89-1.55 126.66-0.91 127.61-0.48 128.57-0.05 129.64 0.16 130.83 0.16ZM132.02-5.43C132.02-4.63 131.92-3.95 131.72-3.37 131.52-2.79 131.22-2.5 130.83-2.5 130.43-2.5 130.13-2.79 129.91-3.38 129.7-3.96 129.59-4.65 129.59-5.43 129.59-5.93 129.64-6.4 129.73-6.84 129.82-7.29 129.97-7.66 130.16-7.97 130.36-8.27 130.59-8.42 130.85-8.42 131.23-8.42 131.52-8.12 131.72-7.52 131.92-6.92 132.02-6.22 132.02-5.43ZM152.64-6.04L152.64-1.9C152.64-1.49 152.72-1.14 152.87-0.87 153.03-0.6 153.28-0.38 153.64-0.23 154-0.08 154.47 0 155.05 0 155.43 0 155.75-0.03 156-0.08 156.25-0.13 156.48-0.24 156.68-0.4 156.89-0.56 157.05-0.76 157.17-1.01 157.28-1.25 157.38-1.59 157.45-2.01 157.53-2.44 157.58-2.92 157.6-3.46 157.62-3.99 157.63-4.66 157.63-5.47 157.63-7.41 157.4-8.79 156.92-9.61 156.45-10.44 155.67-10.85 154.59-10.85 152.88-10.85 151.44-10.42 150.26-9.57L150.03-9.39C149.53-10.36 148.71-10.85 147.58-10.85 146.84-10.85 146.18-10.77 145.63-10.6 145.07-10.43 144.5-10.13 143.92-9.71 143.59-10.52 142.79-10.92 141.54-10.92 140.84-10.92 140.28-10.68 139.86-10.21 139.44-9.74 139.23-9.11 139.23-8.33L139.23-2.7C139.23-1.74 139.39-1.05 139.72-0.63 140.05-0.21 140.66 0 141.56 0 142.53 0 143.2-0.18 143.58-0.54 143.96-0.9 144.15-1.53 144.15-2.45L144.15-5.63C144.15-6.14 144.24-6.54 144.41-6.86 144.59-7.17 144.81-7.33 145.09-7.33 145.78-7.33 146.12-6.9 146.12-6.04L146.12-1.9C146.12-1.49 146.19-1.14 146.33-0.87 146.46-0.6 146.7-0.38 147.02-0.23 147.35-0.08 147.78 0 148.32 0 148.67 0 148.96-0.03 149.19-0.08 149.42-0.13 149.62-0.24 149.81-0.4 149.99-0.56 150.13-0.76 150.24-1.01 150.35-1.25 150.44-1.59 150.52-2.01 150.59-2.44 150.64-2.92 150.66-3.46 150.69-3.99 150.7-4.66 150.7-5.47 150.7-6.01 150.77-6.45 150.93-6.8 151.08-7.15 151.31-7.33 151.61-7.33 152.3-7.33 152.64-6.9 152.64-6.04ZM164.69-2.45L164.69-8.4C164.69-9.36 164.46-10.02 164-10.38 163.54-10.74 162.9-10.92 162.08-10.92 161.37-10.92 160.81-10.68 160.39-10.21 159.97-9.74 159.76-9.11 159.76-8.33L159.76-2.7C159.76-1.74 159.93-1.05 160.26-0.63 160.58-0.21 161.2 0 162.1 0 163.06 0 163.73-0.18 164.11-0.54 164.49-0.9 164.69-1.53 164.69-2.45ZM159.72-14.1C159.72-14.62 159.94-15.04 160.37-15.36 160.81-15.68 161.42-15.84 162.21-15.84 163.88-15.84 164.71-15.26 164.71-14.1 164.71-13.46 164.49-13.01 164.07-12.75 163.64-12.49 163.02-12.36 162.21-12.36 161.5-12.36 160.9-12.5 160.43-12.77 159.95-13.05 159.72-13.49 159.72-14.1ZM173.98-7.58L173.98-3.3C173.72-2.88 173.38-2.68 172.95-2.68 172.54-2.68 172.22-2.95 171.99-3.5 171.76-4.05 171.64-4.68 171.64-5.38 171.64-6.13 171.77-6.79 172.01-7.37 172.25-7.95 172.58-8.24 172.97-8.24 173.38-8.24 173.72-8.02 173.98-7.58ZM170.87 0.14C172.19 0.14 173.35-0.19 174.32-0.85 174.64-0.28 175.31 0 176.31 0 177.28 0 177.95-0.18 178.33-0.54 178.71-0.9 178.9-1.53 178.9-2.45L178.9-8.4C178.9-9.36 178.67-10.02 178.21-10.38 177.76-10.74 177.12-10.92 176.29-10.92 175.38-10.92 174.71-10.54 174.3-9.77 173.25-10.64 172.1-11.08 170.87-11.08 169.65-11.08 168.64-10.56 167.86-9.53 167.07-8.5 166.68-7.12 166.68-5.38 166.68-3.67 167.07-2.32 167.87-1.34 168.66-0.35 169.66 0.14 170.87 0.14Z" transform="translate(-1.1700000762939453, 15.84000015258789)"/></g> </g></g> </g></g><defs v-gra="od"/>
  </svg>
</svg>


